  0
SECTION
  2
HEADER
  9
$EXTMIN
 10
-0.127000
 20
-0.139000
  9
$EXTMAX
 10
0.502000
 20
0.702000
  9
$LIMMIN
 10
-0.127000
 20
-0.139000
  9
$LIMMAX
 10
0.502000
 20
0.702000
  9
$FILLMODE
 70
  1
  0
ENDSEC
  0
SECTION
  2
TABLES
  0
TABLE
  2
LTYPE
 70
  1
  0
LTYPE
  2
CONTINUOUS
 70
 64
  3
Solid line
 72
 65
 73
  0
 40
0.0
  0
ENDTAB
  0
TABLE
  2
LAYER
 70
 1
  0
LAYER
  2
0
 70
  0
 62
7
  6
CONTINUOUS
  0
LAYER
  2
gg1
 70
  0
 62
1
  6
CONTINUOUS
  0
ENDTAB
  0
TABLE
  2
STYLE
 70
  1
  0
STYLE
  2
STANDARD
 70
  0
 40
0.0
 41
1.0
 50
0.0
 71
  0
 42
0.2
  3
txt
  4

  0
ENDTAB
  0
ENDSEC
  0
SECTION
  2
BLOCKS
  0
BLOCK
  8
0
  2
D10
 70
64
 10
0.0
 20
0.0
  3
D10
  0
CIRCLE
  8
0
 10
0.000000
 20
0.000000
 40
0.002500
 0
ENDBLK
  8
0
  0
BLOCK
  8
0
  2
D11
 70
64
 10
0.0
 20
0.0
  3
D11
  0
CIRCLE
  8
0
 10
0.000000
 20
0.000000
 40
0.003000
 0
ENDBLK
  8
0
  0
ENDSEC
  0
SECTION
  2
ENTITIES
  0
POLYLINE
  8
gg1
 62
1
 40
0.000000
 41
0.000000
 66
  1
  0
VERTEX
  8
gg1
 10
0.500000
 20
-0.110000
  0
VERTEX
  8
gg1
 10
0.500000
 20
-0.027500
  0
SEQEND
  8
gg1
  0
POLYLINE
  8
gg1
 62
1
 40
0.000000
 41
0.000000
 66
  1
  0
VERTEX
  8
gg1
 10
0.000000
 20
-0.110000
  0
VERTEX
  8
gg1
 10
0.000000
 20
-0.027500
  0
SEQEND
  8
gg1
  0
POLYLINE
  8
gg1
 62
1
 40
0.000000
 41
0.000000
 66
  1
  0
VERTEX
  8
gg1
 10
0.404900
 20
-0.100000
  0
VERTEX
  8
gg1
 10
0.500000
 20
-0.100000
  0
SEQEND
  8
gg1
  0
POLYLINE
  8
gg1
 62
1
 40
0.000000
 41
0.000000
 66
  1
  0
VERTEX
  8
gg1
 10
0.000000
 20
-0.100000
  0
VERTEX
  8
gg1
 10
0.063100
 20
-0.100000
  0
SEQEND
  8
gg1
  0
POLYLINE
  8
gg1
 62
1
 40
0.000000
 41
0.000000
 66
  1
  0
VERTEX
  8
gg1
 10
0.440000
 20
-0.080000
  0
VERTEX
  8
gg1
 10
0.500000
 20
-0.100000
  0
SEQEND
  8
gg1
  0
POLYLINE
  8
gg1
 62
1
 40
0.000000
 41
0.000000
 66
  1
  0
VERTEX
  8
gg1
 10
0.440000
 20
-0.120000
  0
VERTEX
  8
gg1
 10
0.500000
 20
-0.100000
  0
SEQEND
  8
gg1
  0
POLYLINE
  8
gg1
 62
1
 40
0.000000
 41
0.000000
 66
  1
  0
VERTEX
  8
gg1
 10
0.000000
 20
-0.100000
  0
VERTEX
  8
gg1
 10
0.060000
 20
-0.120000
  0
SEQEND
  8
gg1
  0
POLYLINE
  8
gg1
 62
1
 40
0.000000
 41
0.000000
 66
  1
  0
VERTEX
  8
gg1
 10
0.000000
 20
-0.100000
  0
VERTEX
  8
gg1
 10
0.060000
 20
-0.080000
  0
SEQEND
  8
gg1
  0
POLYLINE
  8
gg1
 62
1
 40
0.000000
 41
0.000000
 66
  1
  0
VERTEX
  8
gg1
 10
-0.110000
 20
0.700000
  0
VERTEX
  8
gg1
 10
-0.027500
 20
0.700000
  0
SEQEND
  8
gg1
  0
POLYLINE
  8
gg1
 62
1
 40
0.000000
 41
0.000000
 66
  1
  0
VERTEX
  8
gg1
 10
-0.110000
 20
0.000000
  0
VERTEX
  8
gg1
 10
-0.027500
 20
0.000000
  0
SEQEND
  8
gg1
  0
POLYLINE
  8
gg1
 62
1
 40
0.000000
 41
0.000000
 66
  1
  0
VERTEX
  8
gg1
 10
-0.100000
 20
0.504900
  0
VERTEX
  8
gg1
 10
-0.100000
 20
0.700000
  0
SEQEND
  8
gg1
  0
POLYLINE
  8
gg1
 62
1
 40
0.000000
 41
0.000000
 66
  1
  0
VERTEX
  8
gg1
 10
-0.100000
 20
0.000000
  0
VERTEX
  8
gg1
 10
-0.100000
 20
0.163000
  0
SEQEND
  8
gg1
  0
POLYLINE
  8
gg1
 62
1
 40
0.000000
 41
0.000000
 66
  1
  0
VERTEX
  8
gg1
 10
-0.120000
 20
0.640000
  0
VERTEX
  8
gg1
 10
-0.100000
 20
0.700000
  0
VERTEX
  8
gg1
 10
-0.080000
 20
0.640000
  0
SEQEND
  8
gg1
  0
POLYLINE
  8
gg1
 62
1
 40
0.000000
 41
0.000000
 66
  1
  0
VERTEX
  8
gg1
 10
-0.100000
 20
0.000000
  0
VERTEX
  8
gg1
 10
-0.080000
 20
0.060000
  0
SEQEND
  8
gg1
  0
POLYLINE
  8
gg1
 62
1
 40
0.000000
 41
0.000000
 66
  1
  0
VERTEX
  8
gg1
 10
-0.120000
 20
0.060000
  0
VERTEX
  8
gg1
 10
-0.100000
 20
0.000000
  0
SEQEND
  8
gg1
  0
POLYLINE
  8
gg1
 62
1
 40
0.000000
 41
0.000000
 66
  1
  0
VERTEX
  8
gg1
 10
0.000000
 20
0.000000
  0
VERTEX
  8
gg1
 10
0.500000
 20
0.000000
  0
VERTEX
  8
gg1
 10
0.500000
 20
0.700000
  0
SEQEND
  8
gg1
  0
POLYLINE
  8
gg1
 62
1
 40
0.000000
 41
0.000000
 66
  1
  0
VERTEX
  8
gg1
 10
0.000000
 20
0.700000
  0
VERTEX
  8
gg1
 10
0.500000
 20
0.700000
  0
SEQEND
  8
gg1
  0
POLYLINE
  8
gg1
 62
1
 40
0.000000
 41
0.000000
 66
  1
  0
VERTEX
  8
gg1
 10
0.000000
 20
0.000000
  0
VERTEX
  8
gg1
 10
0.000000
 20
0.700000
  0
SEQEND
  8
gg1
  0
POLYLINE
  8
gg1
 62
1
 40
0.000000
 41
0.000000
 66
  1
  0
VERTEX
  8
gg1
 10
0.357000
 20
0.100000
  0
VERTEX
  8
gg1
 10
0.443000
 20
0.100000
  0
SEQEND
  8
gg1
  0
POLYLINE
  8
gg1
 62
1
 40
0.000000
 41
0.000000
 66
  1
  0
VERTEX
  8
gg1
 10
0.400000
 20
0.057000
  0
VERTEX
  8
gg1
 10
0.400000
 20
0.143000
  0
SEQEND
  8
gg1
  0
POLYLINE
  8
gg1
 62
1
 40
0.000000
 41
0.000000
 66
  1
  0
VERTEX
  8
gg1
 10
0.357000
 20
0.600000
  0
VERTEX
  8
gg1
 10
0.443000
 20
0.600000
  0
SEQEND
  8
gg1
  0
POLYLINE
  8
gg1
 62
1
 40
0.000000
 41
0.000000
 66
  1
  0
VERTEX
  8
gg1
 10
0.400000
 20
0.557000
  0
VERTEX
  8
gg1
 10
0.400000
 20
0.643000
  0
SEQEND
  8
gg1
  0
POLYLINE
  8
gg1
 62
1
 40
0.000000
 41
0.000000
 66
  1
  0
VERTEX
  8
gg1
 10
0.030000
 20
0.050000
  0
VERTEX
  8
gg1
 10
0.070000
 20
0.050000
  0
SEQEND
  8
gg1
  0
POLYLINE
  8
gg1
 62
1
 40
0.000000
 41
0.000000
 66
  1
  0
VERTEX
  8
gg1
 10
0.050000
 20
0.030000
  0
VERTEX
  8
gg1
 10
0.050000
 20
0.070000
  0
SEQEND
  8
gg1
  0
POLYLINE
  8
gg1
 62
1
 40
0.000000
 41
0.000000
 66
  1
  0
VERTEX
  8
gg1
 10
0.030000
 20
0.150000
  0
VERTEX
  8
gg1
 10
0.070000
 20
0.150000
  0
SEQEND
  8
gg1
  0
POLYLINE
  8
gg1
 62
1
 40
0.000000
 41
0.000000
 66
  1
  0
VERTEX
  8
gg1
 10
0.050000
 20
0.130000
  0
VERTEX
  8
gg1
 10
0.050000
 20
0.170000
  0
SEQEND
  8
gg1
  0
POLYLINE
  8
gg1
 62
1
 40
0.000000
 41
0.000000
 66
  1
  0
VERTEX
  8
gg1
 10
0.030000
 20
0.650000
  0
VERTEX
  8
gg1
 10
0.070000
 20
0.650000
  0
SEQEND
  8
gg1
  0
POLYLINE
  8
gg1
 62
1
 40
0.000000
 41
0.000000
 66
  1
  0
VERTEX
  8
gg1
 10
0.050000
 20
0.630000
  0
VERTEX
  8
gg1
 10
0.050000
 20
0.670000
  0
SEQEND
  8
gg1
  0
POLYLINE
  8
gg1
 62
1
 40
0.000000
 41
0.000000
 66
  1
  0
VERTEX
  8
gg1
 10
0.030000
 20
0.550000
  0
VERTEX
  8
gg1
 10
0.070000
 20
0.550000
  0
SEQEND
  8
gg1
  0
POLYLINE
  8
gg1
 62
1
 40
0.000000
 41
0.000000
 66
  1
  0
VERTEX
  8
gg1
 10
0.050000
 20
0.530000
  0
VERTEX
  8
gg1
 10
0.050000
 20
0.570000
  0
SEQEND
  8
gg1
  0
POLYLINE
  8
gg1
 62
1
 40
0.000000
 41
0.000000
 66
  1
  0
VERTEX
  8
gg1
 10
0.030000
 20
0.450000
  0
VERTEX
  8
gg1
 10
0.070000
 20
0.450000
  0
SEQEND
  8
gg1
  0
POLYLINE
  8
gg1
 62
1
 40
0.000000
 41
0.000000
 66
  1
  0
VERTEX
  8
gg1
 10
0.050000
 20
0.430000
  0
VERTEX
  8
gg1
 10
0.050000
 20
0.470000
  0
SEQEND
  8
gg1
  0
POLYLINE
  8
gg1
 62
1
 40
0.000000
 41
0.000000
 66
  1
  0
VERTEX
  8
gg1
 10
0.030000
 20
0.350000
  0
VERTEX
  8
gg1
 10
0.070000
 20
0.350000
  0
SEQEND
  8
gg1
  0
POLYLINE
  8
gg1
 62
1
 40
0.000000
 41
0.000000
 66
  1
  0
VERTEX
  8
gg1
 10
0.050000
 20
0.330000
  0
VERTEX
  8
gg1
 10
0.050000
 20
0.370000
  0
SEQEND
  8
gg1
  0
POLYLINE
  8
gg1
 62
1
 40
0.000000
 41
0.000000
 66
  1
  0
VERTEX
  8
gg1
 10
0.030000
 20
0.250000
  0
VERTEX
  8
gg1
 10
0.070000
 20
0.250000
  0
SEQEND
  8
gg1
  0
POLYLINE
  8
gg1
 62
1
 40
0.000000
 41
0.000000
 66
  1
  0
VERTEX
  8
gg1
 10
0.050000
 20
0.230000
  0
VERTEX
  8
gg1
 10
0.050000
 20
0.270000
  0
SEQEND
  8
gg1
  0
POLYLINE
  8
gg1
 62
1
 40
0.000000
 41
0.000000
 66
  1
  0
VERTEX
  8
gg1
 10
0.232500
 20
0.240000
  0
VERTEX
  8
gg1
 10
0.247500
 20
0.240000
  0
SEQEND
  8
gg1
  0
POLYLINE
  8
gg1
 62
1
 40
0.000000
 41
0.000000
 66
  1
  0
VERTEX
  8
gg1
 10
0.240000
 20
0.232500
  0
VERTEX
  8
gg1
 10
0.240000
 20
0.247500
  0
SEQEND
  8
gg1
  0
POLYLINE
  8
gg1
 62
1
 40
0.000000
 41
0.000000
 66
  1
  0
VERTEX
  8
gg1
 10
0.232500
 20
0.095000
  0
VERTEX
  8
gg1
 10
0.247500
 20
0.095000
  0
SEQEND
  8
gg1
  0
POLYLINE
  8
gg1
 62
1
 40
0.000000
 41
0.000000
 66
  1
  0
VERTEX
  8
gg1
 10
0.240000
 20
0.087500
  0
VERTEX
  8
gg1
 10
0.240000
 20
0.102500
  0
SEQEND
  8
gg1
  0
POLYLINE
  8
gg1
 62
1
 40
0.000000
 41
0.000000
 66
  1
  0
VERTEX
  8
gg1
 10
0.432500
 20
0.210000
  0
VERTEX
  8
gg1
 10
0.447500
 20
0.210000
  0
SEQEND
  8
gg1
  0
POLYLINE
  8
gg1
 62
1
 40
0.000000
 41
0.000000
 66
  1
  0
VERTEX
  8
gg1
 10
0.440000
 20
0.202500
  0
VERTEX
  8
gg1
 10
0.440000
 20
0.217500
  0
SEQEND
  8
gg1
  0
POLYLINE
  8
gg1
 62
1
 40
0.000000
 41
0.000000
 66
  1
  0
VERTEX
  8
gg1
 10
0.167500
 20
0.330000
  0
VERTEX
  8
gg1
 10
0.182500
 20
0.330000
  0
SEQEND
  8
gg1
  0
POLYLINE
  8
gg1
 62
1
 40
0.000000
 41
0.000000
 66
  1
  0
VERTEX
  8
gg1
 10
0.175000
 20
0.322500
  0
VERTEX
  8
gg1
 10
0.175000
 20
0.337500
  0
SEQEND
  8
gg1
  0
POLYLINE
  8
gg1
 62
1
 40
0.000000
 41
0.000000
 66
  1
  0
VERTEX
  8
gg1
 10
0.152500
 20
0.140000
  0
VERTEX
  8
gg1
 10
0.167500
 20
0.140000
  0
SEQEND
  8
gg1
  0
POLYLINE
  8
gg1
 62
1
 40
0.000000
 41
0.000000
 66
  1
  0
VERTEX
  8
gg1
 10
0.160000
 20
0.132500
  0
VERTEX
  8
gg1
 10
0.160000
 20
0.147500
  0
SEQEND
  8
gg1
  0
POLYLINE
  8
gg1
 62
1
 40
0.000000
 41
0.000000
 66
  1
  0
VERTEX
  8
gg1
 10
0.192500
 20
0.144000
  0
VERTEX
  8
gg1
 10
0.207500
 20
0.144000
  0
SEQEND
  8
gg1
  0
POLYLINE
  8
gg1
 62
1
 40
0.000000
 41
0.000000
 66
  1
  0
VERTEX
  8
gg1
 10
0.200000
 20
0.136500
  0
VERTEX
  8
gg1
 10
0.200000
 20
0.151500
  0
SEQEND
  8
gg1
  0
POLYLINE
  8
gg1
 62
1
 40
0.000000
 41
0.000000
 66
  1
  0
VERTEX
  8
gg1
 10
0.387500
 20
0.320000
  0
VERTEX
  8
gg1
 10
0.402500
 20
0.320000
  0
SEQEND
  8
gg1
  0
POLYLINE
  8
gg1
 62
1
 40
0.000000
 41
0.000000
 66
  1
  0
VERTEX
  8
gg1
 10
0.395000
 20
0.312500
  0
VERTEX
  8
gg1
 10
0.395000
 20
0.327500
  0
SEQEND
  8
gg1
  0
POLYLINE
  8
gg1
 62
1
 40
0.000000
 41
0.000000
 66
  1
  0
VERTEX
  8
gg1
 10
0.202500
 20
0.450000
  0
VERTEX
  8
gg1
 10
0.217500
 20
0.450000
  0
SEQEND
  8
gg1
  0
POLYLINE
  8
gg1
 62
1
 40
0.000000
 41
0.000000
 66
  1
  0
VERTEX
  8
gg1
 10
0.210000
 20
0.442500
  0
VERTEX
  8
gg1
 10
0.210000
 20
0.457500
  0
SEQEND
  8
gg1
  0
POLYLINE
  8
gg1
 62
1
 40
0.000000
 41
0.000000
 66
  1
  0
VERTEX
  8
gg1
 10
0.402500
 20
0.420000
  0
VERTEX
  8
gg1
 10
0.417500
 20
0.420000
  0
SEQEND
  8
gg1
  0
POLYLINE
  8
gg1
 62
1
 40
0.000000
 41
0.000000
 66
  1
  0
VERTEX
  8
gg1
 10
0.410000
 20
0.412500
  0
VERTEX
  8
gg1
 10
0.410000
 20
0.427500
  0
SEQEND
  8
gg1
  0
POLYLINE
  8
gg1
 62
1
 40
0.000000
 41
0.000000
 66
  1
  0
VERTEX
  8
gg1
 10
0.452500
 20
0.325000
  0
VERTEX
  8
gg1
 10
0.467500
 20
0.325000
  0
SEQEND
  8
gg1
  0
POLYLINE
  8
gg1
 62
1
 40
0.000000
 41
0.000000
 66
  1
  0
VERTEX
  8
gg1
 10
0.460000
 20
0.317500
  0
VERTEX
  8
gg1
 10
0.460000
 20
0.332500
  0
SEQEND
  8
gg1
  0
POLYLINE
  8
gg1
 62
1
 40
0.000000
 41
0.000000
 66
  1
  0
VERTEX
  8
gg1
 10
0.292300
 20
0.430000
  0
VERTEX
  8
gg1
 10
0.307300
 20
0.430000
  0
SEQEND
  8
gg1
  0
POLYLINE
  8
gg1
 62
1
 40
0.000000
 41
0.000000
 66
  1
  0
VERTEX
  8
gg1
 10
0.299800
 20
0.422500
  0
VERTEX
  8
gg1
 10
0.299800
 20
0.437500
  0
SEQEND
  8
gg1
  0
POLYLINE
  8
gg1
 62
1
 40
0.000000
 41
0.000000
 66
  1
  0
VERTEX
  8
gg1
 10
0.292500
 20
0.660000
  0
VERTEX
  8
gg1
 10
0.307500
 20
0.660000
  0
SEQEND
  8
gg1
  0
POLYLINE
  8
gg1
 62
1
 40
0.000000
 41
0.000000
 66
  1
  0
VERTEX
  8
gg1
 10
0.300000
 20
0.652500
  0
VERTEX
  8
gg1
 10
0.300000
 20
0.667500
  0
SEQEND
  8
gg1
  0
POLYLINE
  8
gg1
 62
1
 40
0.000000
 41
0.000000
 66
  1
  0
VERTEX
  8
gg1
 10
0.167500
 20
0.400000
  0
VERTEX
  8
gg1
 10
0.182500
 20
0.400000
  0
SEQEND
  8
gg1
  0
POLYLINE
  8
gg1
 62
1
 40
0.000000
 41
0.000000
 66
  1
  0
VERTEX
  8
gg1
 10
0.175000
 20
0.392500
  0
VERTEX
  8
gg1
 10
0.175000
 20
0.407500
  0
SEQEND
  8
gg1
  0
POLYLINE
  8
gg1
 62
1
 40
0.000000
 41
0.000000
 66
  1
  0
VERTEX
  8
gg1
 10
0.119000
 20
-0.076000
  0
VERTEX
  8
gg1
 10
0.079000
 20
-0.076000
  0
VERTEX
  8
gg1
 10
0.079000
 20
-0.106000
  0
VERTEX
  8
gg1
 10
0.099000
 20
-0.096000
  0
VERTEX
  8
gg1
 10
0.109000
 20
-0.096000
  0
VERTEX
  8
gg1
 10
0.119000
 20
-0.106000
  0
VERTEX
  8
gg1
 10
0.119000
 20
-0.126000
  0
VERTEX
  8
gg1
 10
0.109000
 20
-0.136000
  0
VERTEX
  8
gg1
 10
0.089000
 20
-0.136000
  0
VERTEX
  8
gg1
 10
0.079000
 20
-0.126000
  0
SEQEND
  8
gg1
  0
POLYLINE
  8
gg1
 62
1
 40
0.000000
 41
0.000000
 66
  1
  0
VERTEX
  8
gg1
 10
0.139000
 20
-0.086000
  0
VERTEX
  8
gg1
 10
0.149000
 20
-0.076000
  0
VERTEX
  8
gg1
 10
0.169000
 20
-0.076000
  0
VERTEX
  8
gg1
 10
0.179000
 20
-0.086000
  0
VERTEX
  8
gg1
 10
0.179000
 20
-0.126000
  0
VERTEX
  8
gg1
 10
0.169000
 20
-0.136000
  0
VERTEX
  8
gg1
 10
0.149000
 20
-0.136000
  0
VERTEX
  8
gg1
 10
0.139000
 20
-0.126000
  0
VERTEX
  8
gg1
 10
0.139000
 20
-0.086000
  0
SEQEND
  8
gg1
  0
POLYLINE
  8
gg1
 62
1
 40
0.000000
 41
0.000000
 66
  1
  0
VERTEX
  8
gg1
 10
0.199000
 20
-0.086000
  0
VERTEX
  8
gg1
 10
0.209000
 20
-0.076000
  0
VERTEX
  8
gg1
 10
0.229000
 20
-0.076000
  0
VERTEX
  8
gg1
 10
0.239000
 20
-0.086000
  0
VERTEX
  8
gg1
 10
0.239000
 20
-0.126000
  0
VERTEX
  8
gg1
 10
0.229000
 20
-0.136000
  0
VERTEX
  8
gg1
 10
0.209000
 20
-0.136000
  0
VERTEX
  8
gg1
 10
0.199000
 20
-0.126000
  0
VERTEX
  8
gg1
 10
0.199000
 20
-0.086000
  0
SEQEND
  8
gg1
  0
POLYLINE
  8
gg1
 62
1
 40
0.000000
 41
0.000000
 66
  1
  0
VERTEX
  8
gg1
 10
0.259000
 20
-0.136000
  0
VERTEX
  8
gg1
 10
0.259000
 20
-0.096000
  0
VERTEX
  8
gg1
 10
0.269000
 20
-0.096000
  0
VERTEX
  8
gg1
 10
0.279000
 20
-0.106000
  0
VERTEX
  8
gg1
 10
0.279000
 20
-0.136000
  0
VERTEX
  8
gg1
 10
0.279000
 20
-0.106000
  0
VERTEX
  8
gg1
 10
0.289000
 20
-0.096000
  0
VERTEX
  8
gg1
 10
0.299000
 20
-0.106000
  0
VERTEX
  8
gg1
 10
0.299000
 20
-0.136000
  0
SEQEND
  8
gg1
  0
POLYLINE
  8
gg1
 62
1
 40
0.000000
 41
0.000000
 66
  1
  0
VERTEX
  8
gg1
 10
0.319000
 20
-0.136000
  0
VERTEX
  8
gg1
 10
0.339000
 20
-0.136000
  0
VERTEX
  8
gg1
 10
0.329000
 20
-0.136000
  0
VERTEX
  8
gg1
 10
0.329000
 20
-0.096000
  0
VERTEX
  8
gg1
 10
0.319000
 20
-0.096000
  0
SEQEND
  8
gg1
  0
POLYLINE
  8
gg1
 62
1
 40
0.000000
 41
0.000000
 66
  1
  0
VERTEX
  8
gg1
 10
0.369000
 20
-0.136000
  0
VERTEX
  8
gg1
 10
0.388900
 20
-0.136000
  0
VERTEX
  8
gg1
 10
0.379000
 20
-0.136000
  0
VERTEX
  8
gg1
 10
0.379000
 20
-0.076000
  0
VERTEX
  8
gg1
 10
0.369000
 20
-0.076000
  0
SEQEND
  8
gg1
  0
POLYLINE
  8
gg1
 62
1
 40
0.000000
 41
0.000000
 66
  1
  0
VERTEX
  8
gg1
 10
-0.124000
 20
0.179000
  0
VERTEX
  8
gg1
 10
-0.124000
 20
0.219000
  0
VERTEX
  8
gg1
 10
-0.114000
 20
0.219000
  0
VERTEX
  8
gg1
 10
-0.074000
 20
0.179000
  0
VERTEX
  8
gg1
 10
-0.064000
 20
0.179000
  0
SEQEND
  8
gg1
  0
POLYLINE
  8
gg1
 62
1
 40
0.000000
 41
0.000000
 66
  1
  0
VERTEX
  8
gg1
 10
-0.114000
 20
0.239000
  0
VERTEX
  8
gg1
 10
-0.124000
 20
0.249000
  0
VERTEX
  8
gg1
 10
-0.124000
 20
0.269000
  0
VERTEX
  8
gg1
 10
-0.114000
 20
0.279000
  0
VERTEX
  8
gg1
 10
-0.074000
 20
0.279000
  0
VERTEX
  8
gg1
 10
-0.064000
 20
0.269000
  0
VERTEX
  8
gg1
 10
-0.064000
 20
0.249000
  0
VERTEX
  8
gg1
 10
-0.074000
 20
0.239000
  0
VERTEX
  8
gg1
 10
-0.114000
 20
0.239000
  0
SEQEND
  8
gg1
  0
POLYLINE
  8
gg1
 62
1
 40
0.000000
 41
0.000000
 66
  1
  0
VERTEX
  8
gg1
 10
-0.114000
 20
0.299000
  0
VERTEX
  8
gg1
 10
-0.124000
 20
0.309000
  0
VERTEX
  8
gg1
 10
-0.124000
 20
0.329000
  0
VERTEX
  8
gg1
 10
-0.114000
 20
0.339000
  0
VERTEX
  8
gg1
 10
-0.074000
 20
0.339000
  0
VERTEX
  8
gg1
 10
-0.064000
 20
0.329000
  0
VERTEX
  8
gg1
 10
-0.064000
 20
0.309000
  0
VERTEX
  8
gg1
 10
-0.074000
 20
0.299000
  0
VERTEX
  8
gg1
 10
-0.114000
 20
0.299000
  0
SEQEND
  8
gg1
  0
POLYLINE
  8
gg1
 62
1
 40
0.000000
 41
0.000000
 66
  1
  0
VERTEX
  8
gg1
 10
-0.064000
 20
0.359000
  0
VERTEX
  8
gg1
 10
-0.104000
 20
0.359000
  0
VERTEX
  8
gg1
 10
-0.104000
 20
0.369000
  0
VERTEX
  8
gg1
 10
-0.094000
 20
0.379000
  0
VERTEX
  8
gg1
 10
-0.064000
 20
0.379000
  0
VERTEX
  8
gg1
 10
-0.094000
 20
0.379000
  0
VERTEX
  8
gg1
 10
-0.104000
 20
0.389000
  0
VERTEX
  8
gg1
 10
-0.094000
 20
0.399000
  0
VERTEX
  8
gg1
 10
-0.064000
 20
0.399000
  0
SEQEND
  8
gg1
  0
POLYLINE
  8
gg1
 62
1
 40
0.000000
 41
0.000000
 66
  1
  0
VERTEX
  8
gg1
 10
-0.064000
 20
0.419000
  0
VERTEX
  8
gg1
 10
-0.064000
 20
0.439000
  0
VERTEX
  8
gg1
 10
-0.064000
 20
0.429000
  0
VERTEX
  8
gg1
 10
-0.104000
 20
0.429000
  0
VERTEX
  8
gg1
 10
-0.104000
 20
0.419000
  0
SEQEND
  8
gg1
  0
POLYLINE
  8
gg1
 62
1
 40
0.000000
 41
0.000000
 66
  1
  0
VERTEX
  8
gg1
 10
-0.064000
 20
0.469000
  0
VERTEX
  8
gg1
 10
-0.064000
 20
0.489000
  0
VERTEX
  8
gg1
 10
-0.064000
 20
0.479000
  0
VERTEX
  8
gg1
 10
-0.124000
 20
0.479000
  0
VERTEX
  8
gg1
 10
-0.124000
 20
0.469000
  0
SEQEND
  8
gg1
  0
ENDSEC
  0
EOF
