  0
SECTION
  2
HEADER
  9
$EXTMIN
 10
-0.157000
 20
-0.169000
  9
$EXTMAX
 10
0.805000
 20
0.505000
  9
$LIMMIN
 10
-0.157000
 20
-0.169000
  9
$LIMMAX
 10
0.805000
 20
0.505000
  9
$FILLMODE
 70
  1
  0
ENDSEC
  0
SECTION
  2
TABLES
  0
TABLE
  2
LTYPE
 70
  1
  0
LTYPE
  2
CONTINUOUS
 70
 64
  3
Solid line
 72
 65
 73
  0
 40
0.0
  0
ENDTAB
  0
TABLE
  2
LAYER
 70
 1
  0
LAYER
  2
0
 70
  0
 62
7
  6
CONTINUOUS
  0
LAYER
  2
gg1
 70
  0
 62
1
  6
CONTINUOUS
  0
ENDTAB
  0
TABLE
  2
STYLE
 70
  1
  0
STYLE
  2
STANDARD
 70
  0
 40
0.0
 41
1.0
 50
0.0
 71
  0
 42
0.2
  3
txt
  4

  0
ENDTAB
  0
ENDSEC
  0
SECTION
  2
BLOCKS
  0
BLOCK
  8
0
  2
D10
 70
64
 10
0.0
 20
0.0
  3
D10
  0
CIRCLE
  8
0
 10
0.000000
 20
0.000000
 40
0.005000
 0
ENDBLK
  8
0
  0
BLOCK
  8
0
  2
D11
 70
64
 10
0.0
 20
0.0
  3
D11
  0
CIRCLE
  8
0
 10
0.000000
 20
0.000000
 40
0.002500
 0
ENDBLK
  8
0
  0
BLOCK
  8
0
  2
D12
 70
64
 10
0.0
 20
0.0
  3
D12
  0
CIRCLE
  8
0
 10
0.000000
 20
0.000000
 40
0.003000
 0
ENDBLK
  8
0
  0
BLOCK
  8
0
  2
D13
 70
64
 10
0.0
 20
0.0
  3
D13
  0
CIRCLE
  8
0
 10
0.000000
 20
0.000000
 40
0.001000
 0
ENDBLK
  8
0
  0
ENDSEC
  0
SECTION
  2
ENTITIES
  0
POLYLINE
  8
gg1
 62
1
 40
0.000000
 41
0.000000
 66
  1
  0
VERTEX
  8
gg1
 10
0.800000
 20
-0.140000
  0
VERTEX
  8
gg1
 10
0.800000
 20
-0.010000
  0
SEQEND
  8
gg1
  0
POLYLINE
  8
gg1
 62
1
 40
0.000000
 41
0.000000
 66
  1
  0
VERTEX
  8
gg1
 10
0.000000
 20
-0.140000
  0
VERTEX
  8
gg1
 10
0.000000
 20
-0.012500
  0
SEQEND
  8
gg1
  0
POLYLINE
  8
gg1
 62
1
 40
0.000000
 41
0.000000
 66
  1
  0
VERTEX
  8
gg1
 10
0.554900
 20
-0.130000
  0
VERTEX
  8
gg1
 10
0.800000
 20
-0.130000
  0
SEQEND
  8
gg1
  0
POLYLINE
  8
gg1
 62
1
 40
0.000000
 41
0.000000
 66
  1
  0
VERTEX
  8
gg1
 10
0.000000
 20
-0.130000
  0
VERTEX
  8
gg1
 10
0.213000
 20
-0.130000
  0
SEQEND
  8
gg1
  0
POLYLINE
  8
gg1
 62
1
 40
0.000000
 41
0.000000
 66
  1
  0
VERTEX
  8
gg1
 10
0.740000
 20
-0.110000
  0
VERTEX
  8
gg1
 10
0.800000
 20
-0.130000
  0
SEQEND
  8
gg1
  0
POLYLINE
  8
gg1
 62
1
 40
0.000000
 41
0.000000
 66
  1
  0
VERTEX
  8
gg1
 10
0.740000
 20
-0.150000
  0
VERTEX
  8
gg1
 10
0.800000
 20
-0.130000
  0
SEQEND
  8
gg1
  0
POLYLINE
  8
gg1
 62
1
 40
0.000000
 41
0.000000
 66
  1
  0
VERTEX
  8
gg1
 10
0.000000
 20
-0.130000
  0
VERTEX
  8
gg1
 10
0.060000
 20
-0.150000
  0
SEQEND
  8
gg1
  0
POLYLINE
  8
gg1
 62
1
 40
0.000000
 41
0.000000
 66
  1
  0
VERTEX
  8
gg1
 10
0.000000
 20
-0.130000
  0
VERTEX
  8
gg1
 10
0.060000
 20
-0.110000
  0
SEQEND
  8
gg1
  0
POLYLINE
  8
gg1
 62
1
 40
0.000000
 41
0.000000
 66
  1
  0
VERTEX
  8
gg1
 10
-0.140000
 20
0.000000
  0
VERTEX
  8
gg1
 10
-0.012500
 20
0.000000
  0
SEQEND
  8
gg1
  0
POLYLINE
  8
gg1
 62
1
 40
0.000000
 41
0.000000
 66
  1
  0
VERTEX
  8
gg1
 10
-0.140000
 20
0.500000
  0
VERTEX
  8
gg1
 10
-0.012500
 20
0.500000
  0
SEQEND
  8
gg1
  0
POLYLINE
  8
gg1
 62
1
 40
0.000000
 41
0.000000
 66
  1
  0
VERTEX
  8
gg1
 10
-0.130000
 20
0.000000
  0
VERTEX
  8
gg1
 10
-0.130000
 20
0.063100
  0
SEQEND
  8
gg1
  0
POLYLINE
  8
gg1
 62
1
 40
0.000000
 41
0.000000
 66
  1
  0
VERTEX
  8
gg1
 10
-0.130000
 20
0.404900
  0
VERTEX
  8
gg1
 10
-0.130000
 20
0.500000
  0
SEQEND
  8
gg1
  0
POLYLINE
  8
gg1
 62
1
 40
0.000000
 41
0.000000
 66
  1
  0
VERTEX
  8
gg1
 10
-0.130000
 20
0.000000
  0
VERTEX
  8
gg1
 10
-0.110000
 20
0.060000
  0
SEQEND
  8
gg1
  0
POLYLINE
  8
gg1
 62
1
 40
0.000000
 41
0.000000
 66
  1
  0
VERTEX
  8
gg1
 10
-0.150000
 20
0.060000
  0
VERTEX
  8
gg1
 10
-0.130000
 20
0.000000
  0
SEQEND
  8
gg1
  0
POLYLINE
  8
gg1
 62
1
 40
0.000000
 41
0.000000
 66
  1
  0
VERTEX
  8
gg1
 10
-0.150000
 20
0.440000
  0
VERTEX
  8
gg1
 10
-0.130000
 20
0.500000
  0
VERTEX
  8
gg1
 10
-0.110000
 20
0.440000
  0
SEQEND
  8
gg1
  0
POLYLINE
  8
gg1
 62
1
 40
0.000000
 41
0.000000
 66
  1
  0
VERTEX
  8
gg1
 10
0.000000
 20
0.000000
  0
VERTEX
  8
gg1
 10
0.800000
 20
0.000000
  0
VERTEX
  8
gg1
 10
0.800000
 20
0.500000
  0
SEQEND
  8
gg1
  0
POLYLINE
  8
gg1
 62
1
 40
0.000000
 41
0.000000
 66
  1
  0
VERTEX
  8
gg1
 10
0.000000
 20
0.500000
  0
VERTEX
  8
gg1
 10
0.800000
 20
0.500000
  0
SEQEND
  8
gg1
  0
POLYLINE
  8
gg1
 62
1
 40
0.000000
 41
0.000000
 66
  1
  0
VERTEX
  8
gg1
 10
0.000000
 20
0.000000
  0
VERTEX
  8
gg1
 10
0.000000
 20
0.500000
  0
SEQEND
  8
gg1
  0
POLYLINE
  8
gg1
 62
1
 40
0.000000
 41
0.000000
 66
  1
  0
VERTEX
  8
gg1
 10
0.229000
 20
-0.116000
  0
VERTEX
  8
gg1
 10
0.239000
 20
-0.106000
  0
VERTEX
  8
gg1
 10
0.259000
 20
-0.106000
  0
VERTEX
  8
gg1
 10
0.269000
 20
-0.116000
  0
VERTEX
  8
gg1
 10
0.269000
 20
-0.126000
  0
VERTEX
  8
gg1
 10
0.259000
 20
-0.136000
  0
VERTEX
  8
gg1
 10
0.269000
 20
-0.146000
  0
VERTEX
  8
gg1
 10
0.269000
 20
-0.156000
  0
VERTEX
  8
gg1
 10
0.259000
 20
-0.166000
  0
VERTEX
  8
gg1
 10
0.239000
 20
-0.166000
  0
VERTEX
  8
gg1
 10
0.229000
 20
-0.156000
  0
VERTEX
  8
gg1
 10
0.229000
 20
-0.146000
  0
VERTEX
  8
gg1
 10
0.239000
 20
-0.136000
  0
VERTEX
  8
gg1
 10
0.229000
 20
-0.126000
  0
VERTEX
  8
gg1
 10
0.229000
 20
-0.116000
  0
SEQEND
  8
gg1
  0
POLYLINE
  8
gg1
 62
1
 40
0.000000
 41
0.000000
 66
  1
  0
VERTEX
  8
gg1
 10
0.239000
 20
-0.136000
  0
VERTEX
  8
gg1
 10
0.259000
 20
-0.136000
  0
SEQEND
  8
gg1
  0
POLYLINE
  8
gg1
 62
1
 40
0.000000
 41
0.000000
 66
  1
  0
VERTEX
  8
gg1
 10
0.289000
 20
-0.116000
  0
VERTEX
  8
gg1
 10
0.299000
 20
-0.106000
  0
VERTEX
  8
gg1
 10
0.319000
 20
-0.106000
  0
VERTEX
  8
gg1
 10
0.329000
 20
-0.116000
  0
VERTEX
  8
gg1
 10
0.329000
 20
-0.156000
  0
VERTEX
  8
gg1
 10
0.319000
 20
-0.166000
  0
VERTEX
  8
gg1
 10
0.299000
 20
-0.166000
  0
VERTEX
  8
gg1
 10
0.289000
 20
-0.156000
  0
VERTEX
  8
gg1
 10
0.289000
 20
-0.116000
  0
SEQEND
  8
gg1
  0
POLYLINE
  8
gg1
 62
1
 40
0.000000
 41
0.000000
 66
  1
  0
VERTEX
  8
gg1
 10
0.349000
 20
-0.116000
  0
VERTEX
  8
gg1
 10
0.359000
 20
-0.106000
  0
VERTEX
  8
gg1
 10
0.379000
 20
-0.106000
  0
VERTEX
  8
gg1
 10
0.389000
 20
-0.116000
  0
VERTEX
  8
gg1
 10
0.389000
 20
-0.156000
  0
VERTEX
  8
gg1
 10
0.379000
 20
-0.166000
  0
VERTEX
  8
gg1
 10
0.359000
 20
-0.166000
  0
VERTEX
  8
gg1
 10
0.349000
 20
-0.156000
  0
VERTEX
  8
gg1
 10
0.349000
 20
-0.116000
  0
SEQEND
  8
gg1
  0
POLYLINE
  8
gg1
 62
1
 40
0.000000
 41
0.000000
 66
  1
  0
VERTEX
  8
gg1
 10
0.409000
 20
-0.166000
  0
VERTEX
  8
gg1
 10
0.409000
 20
-0.126000
  0
VERTEX
  8
gg1
 10
0.419000
 20
-0.126000
  0
VERTEX
  8
gg1
 10
0.429000
 20
-0.136000
  0
VERTEX
  8
gg1
 10
0.429000
 20
-0.166000
  0
VERTEX
  8
gg1
 10
0.429000
 20
-0.136000
  0
VERTEX
  8
gg1
 10
0.439000
 20
-0.126000
  0
VERTEX
  8
gg1
 10
0.449000
 20
-0.136000
  0
VERTEX
  8
gg1
 10
0.449000
 20
-0.166000
  0
SEQEND
  8
gg1
  0
POLYLINE
  8
gg1
 62
1
 40
0.000000
 41
0.000000
 66
  1
  0
VERTEX
  8
gg1
 10
0.469000
 20
-0.166000
  0
VERTEX
  8
gg1
 10
0.489000
 20
-0.166000
  0
VERTEX
  8
gg1
 10
0.479000
 20
-0.166000
  0
VERTEX
  8
gg1
 10
0.479000
 20
-0.126000
  0
VERTEX
  8
gg1
 10
0.469000
 20
-0.126000
  0
SEQEND
  8
gg1
  0
POLYLINE
  8
gg1
 62
1
 40
0.000000
 41
0.000000
 66
  1
  0
VERTEX
  8
gg1
 10
0.519000
 20
-0.166000
  0
VERTEX
  8
gg1
 10
0.539000
 20
-0.166000
  0
VERTEX
  8
gg1
 10
0.529000
 20
-0.166000
  0
VERTEX
  8
gg1
 10
0.529000
 20
-0.106000
  0
VERTEX
  8
gg1
 10
0.519000
 20
-0.106000
  0
SEQEND
  8
gg1
  0
POLYLINE
  8
gg1
 62
1
 40
0.000000
 41
0.000000
 66
  1
  0
VERTEX
  8
gg1
 10
-0.154000
 20
0.119000
  0
VERTEX
  8
gg1
 10
-0.154000
 20
0.079000
  0
VERTEX
  8
gg1
 10
-0.124000
 20
0.079000
  0
VERTEX
  8
gg1
 10
-0.134000
 20
0.099000
  0
VERTEX
  8
gg1
 10
-0.134000
 20
0.109000
  0
VERTEX
  8
gg1
 10
-0.124000
 20
0.119000
  0
VERTEX
  8
gg1
 10
-0.104000
 20
0.119000
  0
VERTEX
  8
gg1
 10
-0.094000
 20
0.109000
  0
VERTEX
  8
gg1
 10
-0.094000
 20
0.089000
  0
VERTEX
  8
gg1
 10
-0.104000
 20
0.079000
  0
SEQEND
  8
gg1
  0
POLYLINE
  8
gg1
 62
1
 40
0.000000
 41
0.000000
 66
  1
  0
VERTEX
  8
gg1
 10
-0.144000
 20
0.139000
  0
VERTEX
  8
gg1
 10
-0.154000
 20
0.149000
  0
VERTEX
  8
gg1
 10
-0.154000
 20
0.169000
  0
VERTEX
  8
gg1
 10
-0.144000
 20
0.179000
  0
VERTEX
  8
gg1
 10
-0.104000
 20
0.179000
  0
VERTEX
  8
gg1
 10
-0.094000
 20
0.169000
  0
VERTEX
  8
gg1
 10
-0.094000
 20
0.149000
  0
VERTEX
  8
gg1
 10
-0.104000
 20
0.139000
  0
VERTEX
  8
gg1
 10
-0.144000
 20
0.139000
  0
SEQEND
  8
gg1
  0
POLYLINE
  8
gg1
 62
1
 40
0.000000
 41
0.000000
 66
  1
  0
VERTEX
  8
gg1
 10
-0.144000
 20
0.199000
  0
VERTEX
  8
gg1
 10
-0.154000
 20
0.209000
  0
VERTEX
  8
gg1
 10
-0.154000
 20
0.229000
  0
VERTEX
  8
gg1
 10
-0.144000
 20
0.239000
  0
VERTEX
  8
gg1
 10
-0.104000
 20
0.239000
  0
VERTEX
  8
gg1
 10
-0.094000
 20
0.229000
  0
VERTEX
  8
gg1
 10
-0.094000
 20
0.209000
  0
VERTEX
  8
gg1
 10
-0.104000
 20
0.199000
  0
VERTEX
  8
gg1
 10
-0.144000
 20
0.199000
  0
SEQEND
  8
gg1
  0
POLYLINE
  8
gg1
 62
1
 40
0.000000
 41
0.000000
 66
  1
  0
VERTEX
  8
gg1
 10
-0.094000
 20
0.259000
  0
VERTEX
  8
gg1
 10
-0.134000
 20
0.259000
  0
VERTEX
  8
gg1
 10
-0.134000
 20
0.269000
  0
VERTEX
  8
gg1
 10
-0.124000
 20
0.279000
  0
VERTEX
  8
gg1
 10
-0.094000
 20
0.279000
  0
VERTEX
  8
gg1
 10
-0.124000
 20
0.279000
  0
VERTEX
  8
gg1
 10
-0.134000
 20
0.289000
  0
VERTEX
  8
gg1
 10
-0.124000
 20
0.299000
  0
VERTEX
  8
gg1
 10
-0.094000
 20
0.299000
  0
SEQEND
  8
gg1
  0
POLYLINE
  8
gg1
 62
1
 40
0.000000
 41
0.000000
 66
  1
  0
VERTEX
  8
gg1
 10
-0.094000
 20
0.319000
  0
VERTEX
  8
gg1
 10
-0.094000
 20
0.339000
  0
VERTEX
  8
gg1
 10
-0.094000
 20
0.329000
  0
VERTEX
  8
gg1
 10
-0.134000
 20
0.329000
  0
VERTEX
  8
gg1
 10
-0.134000
 20
0.319000
  0
SEQEND
  8
gg1
  0
POLYLINE
  8
gg1
 62
1
 40
0.000000
 41
0.000000
 66
  1
  0
VERTEX
  8
gg1
 10
-0.094000
 20
0.369000
  0
VERTEX
  8
gg1
 10
-0.094000
 20
0.388900
  0
VERTEX
  8
gg1
 10
-0.094000
 20
0.379000
  0
VERTEX
  8
gg1
 10
-0.154000
 20
0.379000
  0
VERTEX
  8
gg1
 10
-0.154000
 20
0.369000
  0
SEQEND
  8
gg1
  0
POLYLINE
  8
gg1
 62
1
 40
0.000000
 41
0.000000
 66
  1
  0
VERTEX
  8
gg1
 10
0.130000
 20
0.250000
  0
VERTEX
  8
gg1
 10
0.170000
 20
0.250000
  0
SEQEND
  8
gg1
  0
POLYLINE
  8
gg1
 62
1
 40
0.000000
 41
0.000000
 66
  1
  0
VERTEX
  8
gg1
 10
0.150000
 20
0.230000
  0
VERTEX
  8
gg1
 10
0.150000
 20
0.270000
  0
SEQEND
  8
gg1
  0
POLYLINE
  8
gg1
 62
1
 40
0.000000
 41
0.000000
 66
  1
  0
VERTEX
  8
gg1
 10
0.657000
 20
0.400000
  0
VERTEX
  8
gg1
 10
0.743000
 20
0.400000
  0
SEQEND
  8
gg1
  0
POLYLINE
  8
gg1
 62
1
 40
0.000000
 41
0.000000
 66
  1
  0
VERTEX
  8
gg1
 10
0.700000
 20
0.357000
  0
VERTEX
  8
gg1
 10
0.700000
 20
0.443000
  0
SEQEND
  8
gg1
  0
POLYLINE
  8
gg1
 62
1
 40
0.000000
 41
0.000000
 66
  1
  0
VERTEX
  8
gg1
 10
0.030000
 20
0.050000
  0
VERTEX
  8
gg1
 10
0.070000
 20
0.050000
  0
SEQEND
  8
gg1
  0
POLYLINE
  8
gg1
 62
1
 40
0.000000
 41
0.000000
 66
  1
  0
VERTEX
  8
gg1
 10
0.050000
 20
0.030000
  0
VERTEX
  8
gg1
 10
0.050000
 20
0.070000
  0
SEQEND
  8
gg1
  0
POLYLINE
  8
gg1
 62
1
 40
0.000000
 41
0.000000
 66
  1
  0
VERTEX
  8
gg1
 10
0.030000
 20
0.150000
  0
VERTEX
  8
gg1
 10
0.070000
 20
0.150000
  0
SEQEND
  8
gg1
  0
POLYLINE
  8
gg1
 62
1
 40
0.000000
 41
0.000000
 66
  1
  0
VERTEX
  8
gg1
 10
0.050000
 20
0.130000
  0
VERTEX
  8
gg1
 10
0.050000
 20
0.170000
  0
SEQEND
  8
gg1
  0
POLYLINE
  8
gg1
 62
1
 40
0.000000
 41
0.000000
 66
  1
  0
VERTEX
  8
gg1
 10
0.030000
 20
0.250000
  0
VERTEX
  8
gg1
 10
0.070000
 20
0.250000
  0
SEQEND
  8
gg1
  0
POLYLINE
  8
gg1
 62
1
 40
0.000000
 41
0.000000
 66
  1
  0
VERTEX
  8
gg1
 10
0.050000
 20
0.230000
  0
VERTEX
  8
gg1
 10
0.050000
 20
0.270000
  0
SEQEND
  8
gg1
  0
POLYLINE
  8
gg1
 62
1
 40
0.000000
 41
0.000000
 66
  1
  0
VERTEX
  8
gg1
 10
0.030000
 20
0.350000
  0
VERTEX
  8
gg1
 10
0.070000
 20
0.350000
  0
SEQEND
  8
gg1
  0
POLYLINE
  8
gg1
 62
1
 40
0.000000
 41
0.000000
 66
  1
  0
VERTEX
  8
gg1
 10
0.050000
 20
0.330000
  0
VERTEX
  8
gg1
 10
0.050000
 20
0.370000
  0
SEQEND
  8
gg1
  0
POLYLINE
  8
gg1
 62
1
 40
0.000000
 41
0.000000
 66
  1
  0
VERTEX
  8
gg1
 10
0.030000
 20
0.450000
  0
VERTEX
  8
gg1
 10
0.070000
 20
0.450000
  0
SEQEND
  8
gg1
  0
POLYLINE
  8
gg1
 62
1
 40
0.000000
 41
0.000000
 66
  1
  0
VERTEX
  8
gg1
 10
0.050000
 20
0.430000
  0
VERTEX
  8
gg1
 10
0.050000
 20
0.470000
  0
SEQEND
  8
gg1
  0
POLYLINE
  8
gg1
 62
1
 40
0.000000
 41
0.000000
 66
  1
  0
VERTEX
  8
gg1
 10
0.362500
 20
0.425000
  0
VERTEX
  8
gg1
 10
0.377500
 20
0.425000
  0
SEQEND
  8
gg1
  0
POLYLINE
  8
gg1
 62
1
 40
0.000000
 41
0.000000
 66
  1
  0
VERTEX
  8
gg1
 10
0.370000
 20
0.417500
  0
VERTEX
  8
gg1
 10
0.370000
 20
0.432500
  0
SEQEND
  8
gg1
  0
POLYLINE
  8
gg1
 62
1
 40
0.000000
 41
0.000000
 66
  1
  0
VERTEX
  8
gg1
 10
0.747500
 20
0.145000
  0
VERTEX
  8
gg1
 10
0.762500
 20
0.145000
  0
SEQEND
  8
gg1
  0
POLYLINE
  8
gg1
 62
1
 40
0.000000
 41
0.000000
 66
  1
  0
VERTEX
  8
gg1
 10
0.755000
 20
0.137500
  0
VERTEX
  8
gg1
 10
0.755000
 20
0.152500
  0
SEQEND
  8
gg1
  0
POLYLINE
  8
gg1
 62
1
 40
0.000000
 41
0.000000
 66
  1
  0
VERTEX
  8
gg1
 10
0.687500
 20
0.112000
  0
VERTEX
  8
gg1
 10
0.702500
 20
0.112000
  0
SEQEND
  8
gg1
  0
POLYLINE
  8
gg1
 62
1
 40
0.000000
 41
0.000000
 66
  1
  0
VERTEX
  8
gg1
 10
0.695000
 20
0.104500
  0
VERTEX
  8
gg1
 10
0.695000
 20
0.119500
  0
SEQEND
  8
gg1
  0
POLYLINE
  8
gg1
 62
1
 40
0.000000
 41
0.000000
 66
  1
  0
VERTEX
  8
gg1
 10
0.212500
 20
0.100000
  0
VERTEX
  8
gg1
 10
0.227500
 20
0.100000
  0
SEQEND
  8
gg1
  0
POLYLINE
  8
gg1
 62
1
 40
0.000000
 41
0.000000
 66
  1
  0
VERTEX
  8
gg1
 10
0.220000
 20
0.092500
  0
VERTEX
  8
gg1
 10
0.220000
 20
0.107500
  0
SEQEND
  8
gg1
  0
POLYLINE
  8
gg1
 62
1
 40
0.000000
 41
0.000000
 66
  1
  0
VERTEX
  8
gg1
 10
0.587500
 20
0.215000
  0
VERTEX
  8
gg1
 10
0.602500
 20
0.215000
  0
SEQEND
  8
gg1
  0
POLYLINE
  8
gg1
 62
1
 40
0.000000
 41
0.000000
 66
  1
  0
VERTEX
  8
gg1
 10
0.595000
 20
0.207500
  0
VERTEX
  8
gg1
 10
0.595000
 20
0.222500
  0
SEQEND
  8
gg1
  0
POLYLINE
  8
gg1
 62
1
 40
0.000000
 41
0.000000
 66
  1
  0
VERTEX
  8
gg1
 10
0.582500
 20
0.255000
  0
VERTEX
  8
gg1
 10
0.597500
 20
0.255000
  0
SEQEND
  8
gg1
  0
POLYLINE
  8
gg1
 62
1
 40
0.000000
 41
0.000000
 66
  1
  0
VERTEX
  8
gg1
 10
0.590000
 20
0.247500
  0
VERTEX
  8
gg1
 10
0.590000
 20
0.262500
  0
SEQEND
  8
gg1
  0
POLYLINE
  8
gg1
 62
1
 40
0.000000
 41
0.000000
 66
  1
  0
VERTEX
  8
gg1
 10
0.362500
 20
0.266600
  0
VERTEX
  8
gg1
 10
0.377500
 20
0.266600
  0
SEQEND
  8
gg1
  0
POLYLINE
  8
gg1
 62
1
 40
0.000000
 41
0.000000
 66
  1
  0
VERTEX
  8
gg1
 10
0.370000
 20
0.259100
  0
VERTEX
  8
gg1
 10
0.370000
 20
0.274100
  0
SEQEND
  8
gg1
  0
POLYLINE
  8
gg1
 62
1
 40
0.000000
 41
0.000000
 66
  1
  0
VERTEX
  8
gg1
 10
0.432500
 20
0.210000
  0
VERTEX
  8
gg1
 10
0.447500
 20
0.210000
  0
SEQEND
  8
gg1
  0
POLYLINE
  8
gg1
 62
1
 40
0.000000
 41
0.000000
 66
  1
  0
VERTEX
  8
gg1
 10
0.440000
 20
0.202500
  0
VERTEX
  8
gg1
 10
0.440000
 20
0.217500
  0
SEQEND
  8
gg1
  0
POLYLINE
  8
gg1
 62
1
 40
0.000000
 41
0.000000
 66
  1
  0
VERTEX
  8
gg1
 10
0.207500
 20
0.215000
  0
VERTEX
  8
gg1
 10
0.222500
 20
0.215000
  0
SEQEND
  8
gg1
  0
POLYLINE
  8
gg1
 62
1
 40
0.000000
 41
0.000000
 66
  1
  0
VERTEX
  8
gg1
 10
0.215000
 20
0.207500
  0
VERTEX
  8
gg1
 10
0.215000
 20
0.222500
  0
SEQEND
  8
gg1
  0
POLYLINE
  8
gg1
 62
1
 40
0.000000
 41
0.000000
 66
  1
  0
VERTEX
  8
gg1
 10
0.367500
 20
0.155000
  0
VERTEX
  8
gg1
 10
0.382500
 20
0.155000
  0
SEQEND
  8
gg1
  0
POLYLINE
  8
gg1
 62
1
 40
0.000000
 41
0.000000
 66
  1
  0
VERTEX
  8
gg1
 10
0.375000
 20
0.147500
  0
VERTEX
  8
gg1
 10
0.375000
 20
0.162500
  0
SEQEND
  8
gg1
  0
POLYLINE
  8
gg1
 62
1
 40
0.000000
 41
0.000000
 66
  1
  0
VERTEX
  8
gg1
 10
0.307500
 20
0.170000
  0
VERTEX
  8
gg1
 10
0.322500
 20
0.170000
  0
SEQEND
  8
gg1
  0
POLYLINE
  8
gg1
 62
1
 40
0.000000
 41
0.000000
 66
  1
  0
VERTEX
  8
gg1
 10
0.315000
 20
0.162500
  0
VERTEX
  8
gg1
 10
0.315000
 20
0.177500
  0
SEQEND
  8
gg1
  0
ENDSEC
  0
EOF
